<svg xmlns="http://www.w3.org/2000/svg" viewBox="0 0 500 100">
  <path d="M0 80V0h15v65h35v15H0zm85 0V0h15v80H85zm45 0V0h15v65h35v15h-50zm115 0l-25-35-10 12v23h-15V0h15v35l30-35h20L230 35l35 45h-20zm85-32.5V80h-15V47.5c0-8.33-4.17-12.5-12.5-12.5S290 39.17 290 47.5V80h-15V20h15v7.5c5-5.83 11.67-8.75 20-8.75 13.33 0 20 7.92 20 23.75V80zm45 32.5h-15V20h15v60zm0-70h-15V0h15v10z" fill="#000"/>
  <path d="M420 80c-5-5-7.5-11.67-7.5-20s2.5-15 7.5-20 11.67-7.5 20-7.5 15 2.5 20 7.5 7.5 11.67 7.5 20-2.5 15-7.5 20-11.67 7.5-20 7.5-15-2.5-20-7.5zm30-10c2.5-2.5 3.75-5.83 3.75-10s-1.25-7.5-3.75-10-5.83-3.75-10-3.75-7.5 1.25-10 3.75-3.75 5.83-3.75 10 1.25 7.5 3.75 10 5.83 3.75 10 3.75 7.5-1.25 10-3.75z" fill="#000"/>
  <path d="M380 40c0-5.52-4.48-10-10-10s-10 4.48-10 10 4.48 10 10 10 10-4.48 10-10z" fill="#000"/>
</svg>
